<?xml version="1.0" encoding="utf-8"?>
<!-- Generator: Adobe Illustrator 22.0.0, SVG Export Plug-In . SVG Version: 6.00 Build 0)  -->
<svg version="1.1" id="Layer_1" xmlns="http://www.w3.org/2000/svg" xmlns:xlink="http://www.w3.org/1999/xlink" x="0px" y="0px"
	 viewBox="0 0 393 480" style="enable-background:new 0 0 393 480;" xml:space="preserve">
<g>
	<path d="M-1.4,455.5c19.5-7.7,39.1-15.3,58.6-23.2c9.6-3.9,15.7-11.1,18.5-21.3c1.4-5.2,4.6-9.9,5.8-15.1c1.4-6.2,1.9-12.6,1.8-19
		c-0.1-6.2-2.1-12.3-2.2-18.5c-0.3-13.1-13.6-15.8-19-24.8c-4.5-7.7-9.6-15.1-13.2-23.4c8.6,14.2,15.8,29.5,36.9,33.4
		c-0.8-7-0.6-13.1-2.4-18.3c-2.3-6.4-1-12.6-1.3-18.9C81.3,288.3,78.8,290,62,290c3.7-4.1,6.6-6.8,8.7-10c2.1-3.1,4.8-6.8,4.7-10.2
		c-0.3-13.5-17.6-24.9-28.7-21c-1.9-13.7-4-27.6-5.9-41.5c-2.6-19.3-7.3-38.7-2.2-58.2c0.8-3.2,3.9-5.9,5.9-8.9
		c1-1.5,2.6-2.7,3.1-4.3c4.6-14.9,9.1-29.9,14-46.3c-1.2,12.5-2.4,23.8-3.2,35.1c-0.2,2.7,1.2,5.5,2.2,9.8
		c6.2-7.9,12.4-13.1,14.8-19.8c1.8-5-1.3-11.8-2.7-17.6c-0.5-2.2-3.1-3.9-3.7-6.2c-1.1-4.2-1.6-8.4,5.3-7.8c3.1,0.3,6.3-0.7,10-1.2
		c0.3,1.5,0.3,3.2,1.1,4.5c1,1.7,2.5,4.4,3.9,4.4c2.1,0.1,5.2-1.2,6.1-2.9c2-3.7,3.4-7.9,4.3-12.1c1.5-6.6,4.7-11,10.3-15.4
		c8.1-6.4,14.3-15.2,21.2-23c1.6-1.8,2.6-4,4.4-6.8c4.8,6.4,9.5,4.8,15.6,2.4c8-3.2,13.9-10.5,23.9-10.7c4.4-0.1,8.5-7,13.1-10.2
		c2.2-1.5,5.4-1.8,8.1-2.6c0.6,0.9,1.3,1.8,1.9,2.6c-4.3,6.3-8.6,12.6-13.3,19.5c1.3,2.2,3,5.2,5.1,9c1.3-5.2,2.4-9.5,4-15.9
		c3.2,6.3,5.3,10.2,7.6,14.6c3.6-6.3,7-12.2,10.3-18c8.8-0.2,5.4,8.7,9.4,13c1.7-2.5,3-4.4,4.3-6.3c0.1,0.7,0.2,1.4,0.3,2.2
		c7.4-0.7,14.8-1.7,22.2-2.1c2-0.1,5.1,0.9,6.1,2.4c6.2,9.8,11.8,19.9,18.8,31.8c2.5-5.4,4.2-9.1,5.9-12.8c0.6-0.1,1.2-0.2,1.9-0.4
		c0,2.4,0.6,5-0.1,7.2c-1.8,5.9-4.2,11.5-6.3,17.3c1.1,0.6,2.2,1.2,3.3,1.7c1.1-1.4,3.4-3.2,3-4.1c-1.7-4.8-1.2-9.5,3.6-10.7
		c4.1-1.1,9,0.7,13.6,1.4c0.9,0.1,1.7,1.1,2.6,1.7c4.3-10.1,3.9-10.8-7.6-13.7c-1.2-2.5-2.1-6-2.8-5.9c-13.7,0.9-20-9.9-28.2-17.6
		c4.3-7.5,17.9-6.9,23.3,0.9c3,4.3,7.2,7.7,10.7,11.6c3.3,3.8,6.4,7.9,9.6,11.8C313,60.2,320.6,69.6,328,79c3.7,4.6,8.8,8.8,10.5,14
		c4.6,14.3,13.3,28.7,7.7,44.3c-4.9,13.8-2.9,26.8-0.4,40.4c1,5.4-0.6,12.2-3.1,17.3c-4.3,8.7-4.6,19.4-13.6,26.1
		c-2.4,1.8-2.4,8.2-2,12.3c4.2,45.6,0.5,90.3-13.4,134.1c-3.2,10.1-4.6,20.8-9,30.3c-5.5,11.9-13.2,22.8-19.9,34.1
		c-1.5,2.4-3,4.8-5.4,8.5c38.4,12.6,75.6,24.8,112.7,36.9c-0.2,0.8-0.5,1.6-0.7,2.4c-39.3,0-78.6,0-120,0
		c2.2-11.5,4.2-22.3,6.3-33.1c-0.9-0.3-1.9-0.5-2.8-0.8c-1.2,1.9-2.4,3.7-3.5,5.7c-8,15.2-19.7,22.5-37.6,25.1
		c-14.4,2.1-25.5-1.1-37.6-6.6c-15.3-6.8-31.2-12.2-46.2-19.5c-8.6-4.2-15.9-11.3-23.7-17.1c-5.2-3.9-10-7.3-17.3-7.8
		c-4-0.3-8.1-5.6-11.2-9.5c-3.8-4.8-6.6-10.4-10.8-15.3c-7.6,31,14,52.8,25.6,79.2c-38.4,0-76.3,0-114.1,0
		C-1.4,471.8-1.4,463.7-1.4,455.5z M117.9,330c-1.6,9.8-6.5,21.1-4.3,30.8c3.5,15.8,3.8,33.7,17.6,46c2.1,1.9,3.9,4.9,4.5,7.6
		c1.8,7.8,7.1,8.8,13.9,9.1c15.7,0.6,31.5,1.4,41.6,16.5c0.9,1.3,2.4,2.3,3.8,3c22.3,10.4,47.9,8.8,66.5-10.9
		c2.9-3.1,3.4-9.6,2.8-14.1c-0.3-2.2-5.9-4.1-9.4-5.1c-5.9-1.7-12.2-2.4-18.1-4.1c-1.8-0.5-4.4-3.2-4.3-4.8c0.1-1.8,2.5-3.8,4.4-5.1
		c1.2-0.8,3.4-0.1,4.7-0.9c2.5-1.6,4.6-3.7,6.9-5.7c-2.1-1.8-3.9-4.7-6.2-5.2c-16.7-3.5-33.5-2.9-50.1,0.3c-0.1-6.8,3-8.9,11.1-8.6
		c6.6,0.2,13.3-0.9,19.9-1.5c6.6-0.6,13.4-0.6,19.8-2.3c4.2-1.1,10-4.1,11.2-7.5c1.5-4.7-0.6-10.5-6.6-13.3
		c-7.6-3.6-14.8-8-23.8-6.2c-1.5,0.3-3.4-1.4-5-2.1c0.1-1.1,0.2-2.2,0.4-3.3c6.1-0.3,12.5-2,18.3-0.7c9.2,2,16.3-1.1,21.9-7.1
		c5.8-6.3,3.3-13.8,0.9-21.4c-4.4-13.8-8.2-27.9-11.5-42c-1.6-6.7,1.8-11.4,9-13c4.2-1,8.1-2.7,12.2-3.9c7.2-2.1,14.4-4.9,21.8-5.8
		c5.6-0.7,7.9-2.5,9-8c2.2-11,5.7-21.8,7.9-32.9c2.1-10.5,4.8-21.1,4.7-31.6c-0.1-10-4.2-19.6-14-25.2c-6.3-3.6-12.5-7.5-19.1-10.8
		c-15.3-7.6-31-14-48.8-11.4c-1.8,0.3-3.8-1.1-5.7-1.8c1.1-1.6,2-3.5,3.5-4.8c3.9-3.6,10.2-6.2,11.6-10.5
		c2.9-8.7,8.7-13.4,15.8-17.7c1.7-1,3.3-2.2,5-3.3c-0.4-0.7-0.9-1.5-1.3-2.2c-4.1,2.5-9,4.3-12.2,7.6c-14.5,15-31.8,26.2-49.4,36.9
		c-3.2,2-7.6,2.3-11.6,2.7c-12.1,1.3-24.3,1.5-36.3,3.5c-6.2,1.1-11.9,4.9-17.7,7.9c-1.5,0.8-3,2.5-3.5,4.1c-1.3,3.8-2.2,7.8-3,11.8
		c-0.6,3.5-1.2,7.2-1.1,10.8c0.1,5.5,0.8,11.1,1.3,16.6c0.4,5.5,0.9,11,1.3,16.4c1.1,0.3,2.2,0.6,3.3,1
		c-6.5,6.3-12.1,14.5-19.9,18.3c-9.9,4.9-15.9,11.6-17.2,21.7c-1.3,10.4-1.7,21.2-0.7,31.6c1,9.8,2.9,20.1,7.1,28.9
		C104.4,316.1,111.7,322.4,117.9,330z M293.2,343.1c9.4-17.1,26.4-29.6,25.4-52.9c-13.7,8.9-26.3,17-38.5,24.8
		C284.3,323.9,288.5,332.9,293.2,343.1z M164.4,59.9c-17.3,10-32.8,21.9-45.2,37.4c-1.4,1.7-0.7,5.1-1.1,8.2
		C134.2,89.7,149.3,74.8,164.4,59.9z M112.1,152.8c2.9-13.9,5.7-27.8,8.6-41.7c-0.9-0.2-1.8-0.3-2.8-0.5
		C107.4,123.4,110,138.2,112.1,152.8z M183.8,96.4c-7,3-13.2,5.3-19,8.3c-5.6,2.9-14.6,0.9-16.2,11.8c3.5-1.6,6-2.8,8.6-4
		c2.4-1,4.8-2.9,7.2-2.8C174.9,109.8,178.8,107.5,183.8,96.4z M103.2,119.5c1,0.4,2.1,0.7,3.1,1.1c1.3-4.7,2.8-9.4,3.7-14.2
		c0.4-2.3-0.7-4.8-1.1-7.2c-2.4,1.9-6.6,3.6-6.9,5.9C101.3,109.8,102.6,114.7,103.2,119.5z M54.2,132.2c-3.3,4.6-6.1,8.7-9.1,13
		c6.2,6.9,9.4,0.3,12.7-2.9C63.1,137,57.2,135.4,54.2,132.2z M186.2,47.4c-10.4-1.8-13.5,1.2-10.7,9.3
		C178.9,53.7,181.9,51.1,186.2,47.4z M269.6,86c9.2,5.3,9.2,5.3,12.8,1.4C275,82.1,275,82.1,269.6,86z"/>
	<path d="M75.6,59.5c1.6-4.2,3.2-8.3,4.7-12.5c1.4-4,2.7-8.2,4.3-12.9c6.1,4.3,17.4-4.2,19.2,10.7c3.1-2.4,5.3-4.1,7.4-5.8
		c-1.3-1.4-2.6-2.8-4-4.4c4.1-8.7,9.7-10.7,18.9-5.8c-6.9,10.8-11.4,23.6-24.3,29c-3.7,1.6-10,2.4-12.4,0.3
		C83.3,52.9,79.7,53.4,75.6,59.5z"/>
	<path d="M168.6,0c4.9,0.9,9.9,1.7,14.8,2.5c-2.8,4.6-5.9,9.6-9,14.6C165.7,13.9,165.9,7.8,168.6,0z"/>
	<path d="M198.3,249.7c6.1,0.7,12.6,1.1,19,2.4c3.9,0.8,8.8,1.6,8.3,7.9c-0.5,6.1-2.9,10.8-9.1,11.6c-6.9,1-14,0.6-20.9,1.2
		c-2.2,0.2-4.7,1.3-6.3,2.8c-4.7,4.6-9.3,3.7-14.9,1.6c-3.8-1.4-8.4-1.4-12.6-0.9c-3.6,0.5-7.1,3.7-10.6,3.7
		c-3.8,0-7.6-2.4-11.4-3.8c1.3-3.5,1.6-8.7,4-10.2c9.2-5.3,18.9-10.4,29-13.6C180.8,250,189.6,250.5,198.3,249.7z"/>
	<path d="M207,282.3c-3.4,2.2-6.6,5.2-10.3,6.3c-2.5,0.7-5.8-1.3-8.8-2c0.1-0.9,0.1-1.8,0.2-2.8c5.6-1.8,11.2-3.5,16.8-5.3
		C205.6,279.8,206.3,281,207,282.3z"/>
</g>
</svg>
